HIERARCHY
ROOT Hip
{
  OFFSET 0.0 0.0 0.0
  CHANNELS 6 Xposition Yposition Zposition Xrotation Yrotation Zrotation
  JOINT LowerSpine
  {
    OFFSET 0.0 0.061367 -0.03653
    CHANNELS 3 Xrotation Yrotation Zrotation
    JOINT MiddleSpine
    {
      OFFSET 0.0 0.056002 0.002633
      CHANNELS 3 Xrotation Yrotation Zrotation
      JOINT Chest
      {
        OFFSET 0.0 0.069296 -0.013882
        CHANNELS 3 Xrotation Yrotation Zrotation
        JOINT Neck
        {
          OFFSET 0.0 0.156156 -0.002923
          CHANNELS 3 Xrotation Yrotation Zrotation
          JOINT Head
          {
            OFFSET 0.0 0.088183 0.023986
            CHANNELS 3 Xrotation Yrotation Zrotation
            End Site
            {
              OFFSET 1e-06 0.123215 0.003678
            }
          }
        }
        JOINT LClavicle
        {
          OFFSET 0.014189 0.150698 0.046467
          CHANNELS 3 Xrotation Yrotation Zrotation
          JOINT LShoulder
          {
            OFFSET 0.082893 0.021616 -0.034976
            CHANNELS 3 Xrotation Yrotation Zrotation
            JOINT LForearm
            {
              OFFSET 0.195645 -0.000695 -0.001695
              CHANNELS 3 Xrotation Yrotation Zrotation
              JOINT LHand
              {
                OFFSET 0.163209 0.000474 -0.000977
                CHANNELS 3 Xrotation Yrotation Zrotation
                End Site
                {
                  OFFSET 0.0 0.006864 0.0
                }
              }
            }
          }
        }
        JOINT RClavicle
        {
          OFFSET -0.014189 0.150698 0.046467
          CHANNELS 3 Xrotation Yrotation Zrotation
          JOINT RShoulder
          {
            OFFSET -0.082908 0.021619 -0.034982
            CHANNELS 3 Xrotation Yrotation Zrotation
            JOINT RForearm
            {
              OFFSET -0.195645 -0.000695 -0.001695
              CHANNELS 3 Xrotation Yrotation Zrotation
              JOINT RHand
              {
                OFFSET -0.163209 0.000474 -0.000977
                CHANNELS 3 Xrotation Yrotation Zrotation
                End Site
                {
                  OFFSET 0.0 0.006864 0.0
                }
              }
            }
          }
        }
      }
    }
  }
  JOINT RThigh
  {
    OFFSET -0.072558 0.02774 -0.005953
    CHANNELS 3 Xrotation Yrotation Zrotation
    JOINT RShin
    {
      OFFSET -0.005253 -0.285537 0.0
      CHANNELS 3 Xrotation Yrotation Zrotation
      JOINT RFoot
      {
        OFFSET 0.0 -0.28038 0.0
        CHANNELS 3 Xrotation Yrotation Zrotation
        JOINT RToe
        {
          OFFSET 0.0 -0.030816 0.064441
          CHANNELS 3 Xrotation Yrotation Zrotation
          End Site
          {
            OFFSET 0.0 0.0 0.043231
          }
        }
      }
    }
  }
  JOINT LThigh
  {
    OFFSET 0.072557 0.027741 -0.005953
    CHANNELS 3 Xrotation Yrotation Zrotation
    JOINT LShin
    {
      OFFSET 0.005253 -0.285539 0.0
      CHANNELS 3 Xrotation Yrotation Zrotation
      JOINT LFoot
      {
        OFFSET 0.0 -0.28038 0.0
        CHANNELS 3 Xrotation Yrotation Zrotation
        JOINT LToe
        {
          OFFSET 0.0 -0.030816 0.064441
          CHANNELS 3 Xrotation Yrotation Zrotation
          End Site
          {
            OFFSET 0.0 0.0 0.043231
          }
        }
      }
    }
  }
}
MOTION
Frames: 18
Frame Time: 0.03333333333333333
-0.048842 0.480374 -0.195864 16.495022 3.481899 0.048543 6.932442 -0.050473 -3.846181 -1.226937 0.284233 -2.596277 -1.916239 -0.018615 -0.924858 4.165155 0.657942 1.724104 -0.425806 1.338144 0.221576 -1.828925 3.139677 -1.025809 0.43992 -31.429045 -47.423489 -6.596684 -80.668678 -5.434521 -0.435492 -0.522483 0.172272 -1.327039 1.228446 6.375584 -16.645926 41.847759 73.950943 24.339767 84.521744 -32.53019 1.228452 -0.236465 0.181969 -62.427425 -3.628788 -7.919518 57.179493 -4.730544 11.37913 -5.27939 -0.362943 0.973732 0.90138 -0.305578 -0.502681 -59.696796 5.023225 12.00174 55.408512 10.18856 -13.523081 -6.549747 1.57401 -0.967304 -0.622897 0.611832 0.284313 
-0.030917 0.46459 -0.18884 6.969908 0.891887 0.604419 9.216997 -0.828337 -2.277315 -1.902784 1.821329 -0.963254 -3.423617 3.711939 -1.444752 6.38688 1.224281 1.838513 -0.203401 0.435186 0.105659 -2.982763 -0.118155 -0.649607 -0.482262 -28.965292 -50.668579 14.759378 -83.675659 18.329454 -0.307189 -0.356954 0.148717 -4.205092 1.736579 4.750727 -10.38346 31.562548 69.020302 69.140251 86.586426 -75.850647 0.523399 0.07242 0.067135 -50.950459 -3.127832 -5.420879 49.252441 -3.310994 8.711188 -5.40637 -1.186046 -0.089084 0.451819 -0.459879 -0.370694 -39.641415 10.254478 11.979801 42.002659 9.100333 -14.185187 -7.640095 1.547826 -0.18927 -0.341653 0.2791 0.134348 
-0.028669 0.463825 -0.174122 6.241099 0.975967 0.451913 8.616293 -0.876148 -1.73625 -1.555873 2.485612 -0.581371 -3.326418 4.525356 -0.355711 6.202034 1.326836 1.227954 -0.099862 0.209383 0.044913 -2.779562 -0.673326 -1.269218 -0.032936 -25.97027 -54.124367 27.22625 -84.315727 30.997107 -0.184223 -0.218251 0.106599 -3.878788 0.764483 5.007097 -8.413061 27.524099 69.647316 123.941666 85.585274 -130.480988 0.343248 -0.02019 0.028335 -49.945515 -4.004307 -4.570035 52.204758 -3.489565 8.275786 -5.415071 -1.239736 -0.37576 0.208286 -0.258343 -0.250474 -38.068279 10.245612 11.310667 42.4599 8.018767 -13.367682 -7.27525 1.493786 0.165309 -0.260925 0.083809 0.111099 
-0.038296 0.463689 -0.161746 5.89173 1.75617 0.739188 8.218753 -0.876017 -1.539909 -1.17898 2.766355 -0.49569 -2.631959 4.918606 0.086698 5.9903 1.362133 1.021286 -0.062255 0.177509 0.030122 -2.527906 -0.692495 -1.375117 0.75147 -24.546846 -55.175285 43.961266 -85.734375 47.696587 -0.173028 -0.193048 0.115922 -3.476057 0.431221 5.093231 -8.82774 27.821194 69.682747 145.459213 83.146652 -152.101456 0.268186 -0.010838 0.012278 -49.003826 -4.603177 -3.902124 53.617111 -3.836767 8.001055 -5.418637 -1.013975 -0.341541 0.115904 -0.175277 -0.185073 -37.879986 10.029343 11.736338 43.453735 7.402623 -13.202001 -6.45488 1.291533 0.212284 -0.213036 0.060752 0.088021 
-0.045776 0.459187 -0.162498 5.74633 2.221187 1.003114 7.899286 -0.836178 -1.377974 -0.95635 2.895319 -0.490502 -2.245598 5.224225 0.072916 5.75627 1.330632 0.912745 -0.043674 0.154029 0.026291 -2.417016 -0.627724 -1.452292 1.170747 -24.927067 -55.443001 46.6689 -86.002518 49.877979 -0.171409 -0.181248 0.124822 -3.264589 0.3632 5.06277 -9.901835 29.41198 69.810539 148.881805 82.428322 -155.576157 0.223063 0.001709 0.007417 -49.780357 -4.644248 -3.628822 56.203491 -3.82743 7.854729 -5.774711 -0.852883 -0.329855 0.074942 -0.137146 -0.141305 -39.69389 9.299379 12.388872 45.752243 6.706333 -13.203311 -6.001754 1.142264 0.153316 -0.186939 0.049096 0.069132 
-0.051342 0.454123 -0.168287 5.52404 2.557548 1.111006 7.697841 -0.78549 -1.245736 -0.806253 2.94176 -0.475202 -1.994957 5.41873 0.061386 5.550703 1.304018 0.8369 -0.033068 0.132395 0.0261 -2.328166 -0.613172 -1.39596 1.000104 -25.53573 -55.608257 41.822079 -85.746323 44.773514 -0.164462 -0.167943 0.123523 -3.147426 0.363258 4.958582 -11.25458 31.039467 70.099731 146.012039 83.207191 -152.783051 0.194754 0.002439 0.004978 -51.117435 -4.485888 -3.309089 58.962543 -3.649128 7.680932 -6.088658 -0.768161 -0.357907 0.055486 -0.109994 -0.111943 -41.400696 8.4407 12.742315 47.789654 5.955632 -13.113795 -5.802627 1.036755 0.114049 -0.168587 0.033477 0.053635 
-0.054855 0.44933 -0.173595 5.298996 2.990476 1.225196 7.571324 -0.751098 -1.141715 -0.719906 2.929492 -0.478721 -1.979662 5.470509 -0.045088 5.392464 1.278166 0.79713 -0.025602 0.115635 0.026828 -2.296315 -0.672682 -1.288019 0.988505 -25.920956 -55.350227 36.122669 -85.35215 38.619865 -0.15768 -0.157347 0.12018 -3.120628 0.413448 4.821016 -12.323717 32.629364 70.355339 138.177704 84.727081 -144.710281 0.176886 0.004162 0.003245 -53.070343 -4.249263 -3.108336 61.680187 -3.373875 7.505891 -6.331786 -0.732097 -0.399376 0.043641 -0.094345 -0.09354 -43.408443 7.650126 12.977419 49.963852 5.276982 -13.147195 -5.674141 0.908167 0.051926 -0.158145 0.021251 0.042826 
-0.057085 0.444762 -0.178181 5.078802 3.528608 1.358682 7.468526 -0.736455 -1.070469 -0.695627 2.863513 -0.495219 -2.059785 5.420618 -0.215001 5.293816 1.257162 0.785055 -0.02055 0.099905 0.027928 -2.306222 -0.75821 -1.181254 1.074393 -26.089462 -54.926941 31.778822 -84.978195 33.695335 -0.153383 -0.153243 0.1178 -3.127555 0.48105 4.752048 -13.131969 34.003414 70.549683 115.50869 86.466087 -121.705231 0.162262 0.012245 0.002425 -55.215569 -4.012712 -2.941411 63.852146 -3.099118 7.289997 -6.423149 -0.736903 -0.434541 0.036479 -0.09466 -0.08394 -45.305935 7.109384 13.085582 51.82333 4.816869 -13.253658 -5.561019 0.79014 -0.008337 -0.155481 0.016604 0.036789 
-0.058894 0.439722 -0.182387 4.989402 4.049006 1.477936 7.381053 -0.737582 -1.022874 -0.738978 2.773546 -0.50265 -2.322941 5.287972 -0.297245 5.232752 1.249645 0.769401 -0.016919 0.089112 0.02941 -2.325125 -0.860116 -1.09698 1.259958 -25.995028 -54.60796 28.323421 -84.599991 29.657959 -0.150608 -0.152438 0.115726 -3.137873 0.554266 4.758157 -13.557642 34.973743 70.638672 65.683304 86.872124 -71.497803 0.152075 0.021429 0.002504 -57.451645 -3.891611 -2.729836 65.672218 -2.922872 7.079453 -6.439764 -0.773864 -0.469759 0.02796 -0.104917 -0.078593 -47.417858 6.601786 13.070439 53.626976 4.452337 -13.314468 -5.441653 0.696066 -0.064507 -0.155987 0.017239 0.034361 
-0.060571 0.433099 -0.187912 5.166635 4.490911 1.564826 7.270458 -0.751349 -0.992999 -0.870919 2.653675 -0.50153 -2.78849 5.069314 -0.272038 5.189411 1.255573 0.747128 -0.016448 0.086163 0.031265 -2.328959 -0.940999 -1.05203 1.607759 -25.695717 -54.305054 25.53035 -84.240715 26.325697 -0.15235 -0.156618 0.117299 -3.135918 0.619724 4.844038 -13.485559 35.52243 70.565964 31.102053 85.12886 -36.358356 0.152484 0.030095 0.004469 -60.200474 -3.885177 -2.471671 67.748528 -2.836848 6.91388 -6.476539 -0.854943 -0.518824 0.021999 -0.123862 -0.077504 -50.432529 5.983156 13.011762 55.962803 4.147291 -13.322514 -5.263155 0.620496 -0.125714 -0.160528 0.024127 0.036988 
-0.062112 0.424223 -0.194601 5.588767 4.87446 1.579238 7.126476 -0.772143 -0.982636 -1.055478 2.50488 -0.48051 -3.376846 4.777592 -0.171682 5.111817 1.258449 0.719597 -0.018511 0.096338 0.033016 -2.306201 -0.970592 -0.99967 2.038279 -25.273432 -53.938881 24.241961 -84.15155 24.60157 -0.156455 -0.161545 0.120139 -3.101714 0.663288 4.929319 -13.061491 35.746597 70.437057 19.393393 83.113312 -23.972168 0.170231 0.031215 0.008824 -63.29388 -4.006166 -2.245493 70.143158 -2.849192 6.843434 -6.534766 -0.932868 -0.560868 0.021596 -0.144283 -0.081256 -54.28616 5.196355 12.96151 58.973396 3.867506 -13.269876 -5.047692 0.553747 -0.197935 -0.168245 0.035797 0.04447 
-0.063574 0.412057 -0.203862 6.504691 5.249959 1.526927 6.912478 -0.787489 -0.97711 -1.323571 2.280491 -0.453675 -4.233677 4.318917 -0.109297 4.980965 1.258855 0.688996 -0.024414 0.115701 0.03659 -2.273955 -0.926117 -0.936599 2.612658 -24.778452 -53.392334 22.804331 -84.28904 22.746943 -0.1636 -0.170202 0.124446 -3.01922 0.691877 5.019288 -12.210819 35.739944 70.213936 13.973445 81.18557 -17.600195 0.197241 0.034493 0.014247 -67.653122 -4.088445 -2.058306 73.448448 -2.884105 6.826222 -6.778007 -1.03782 -0.610883 0.023829 -0.167919 -0.088381 -59.935299 4.155284 12.992204 63.26189 3.571081 -13.161525 -4.854677 0.503253 -0.274747 -0.180803 0.051954 0.054784 
-0.065171 0.398298 -0.214807 8.132651 5.653737 1.448701 6.632264 -0.785935 -0.979218 -1.676404 1.968812 -0.466077 -5.355236 3.667281 -0.190985 4.8154 1.244386 0.644317 -0.032812 0.143539 0.042904 -2.215923 -0.815253 -0.883734 3.401415 -24.305668 -52.459091 20.603296 -84.465584 20.052071 -0.173906 -0.183813 0.131699 -2.872537 0.730753 5.14374 -11.020334 35.752235 69.924515 10.567313 79.053818 -12.974973 0.228178 0.04424 0.020432 -73.252274 -4.177847 -1.95965 77.26535 -2.96748 6.860546 -7.064274 -1.162614 -0.652531 0.027897 -0.198695 -0.099166 -67.076836 3.164849 13.121655 68.49353 3.446815 -13.070042 -4.658713 0.456712 -0.362785 -0.198882 0.074086 0.065895 
-0.065563 0.384991 -0.225945 9.848831 5.892627 1.265261 6.307898 -0.776227 -0.964842 -1.976738 1.668723 -0.461693 -6.406895 2.994975 -0.386201 4.620566 1.202957 0.588947 -0.040516 0.160896 0.049924 -2.137614 -0.71697 -0.911409 4.065502 -24.113808 -51.370117 18.588028 -84.705467 17.697683 -0.179979 -0.192541 0.135368 -2.69463 0.789237 5.197712 -9.772509 35.674969 69.568886 9.233913 77.208939 -10.480206 0.246976 0.058437 0.025111 -78.581848 -4.020164 -1.814487 80.370712 -2.922699 6.816699 -7.228271 -1.285662 -0.691909 0.030373 -0.22662 -0.10743 -73.589676 2.254572 13.20408 72.982246 3.429324 -12.926529 -4.538082 0.426189 -0.426299 -0.212864 0.089335 0.07249 
-0.066382 0.371853 -0.236677 11.607672 6.211423 1.009122 5.966522 -0.764083 -0.96932 -2.245817 1.354767 -0.453404 -7.383009 2.291068 -0.613018 4.39369 1.148756 0.556506 -0.049148 0.176948 0.058894 -2.066875 -0.606551 -0.971288 4.600699 -24.216051 -50.168472 16.226803 -84.818886 14.861698 -0.184252 -0.202182 0.137867 -2.529768 0.849834 5.265109 -8.616901 35.608829 69.407089 8.653304 75.689949 -8.876931 0.263925 0.07309 0.029473 -83.845467 -3.909397 -1.732004 83.399513 -2.891301 6.767788 -7.291949 -1.393602 -0.722813 0.043006 -0.248849 -0.114768 -79.836922 1.305301 13.334766 77.135544 3.435997 -12.800735 -4.462607 0.423361 -0.488078 -0.228807 0.106226 0.078111 
-0.067031 0.360343 -0.245867 12.946077 6.484834 0.827371 5.659399 -0.745481 -0.977892 -2.460231 1.057654 -0.470314 -8.05565 1.669266 -0.814517 4.170089 1.072884 0.550572 -0.060052 0.184753 0.068673 -2.05635 -0.508551 -1.063519 5.190019 -24.463131 -48.775429 13.844563 -84.808578 11.870706 -0.188886 -0.215711 0.140763 -2.427092 0.934353 5.307688 -7.505797 35.596672 69.331055 8.548028 74.522774 -7.840062 0.27699 0.087799 0.034166 -88.194153 -3.788192 -1.771652 85.943932 -2.769588 6.695646 -7.188938 -1.464159 -0.729774 0.066996 -0.268371 -0.122509 -84.578423 0.650251 13.445766 80.135284 3.558295 -12.797428 -4.490541 0.442525 -0.542313 -0.24849 0.12639 0.082308 
-0.068245 0.350294 -0.254366 14.162241 6.890602 0.581541 5.353722 -0.717293 -0.970552 -2.597711 0.776008 -0.491936 -8.419068 1.016976 -1.128159 3.93691 0.994288 0.543136 -0.069782 0.187948 0.078504 -2.03594 -0.44022 -1.192901 5.749304 -24.957937 -47.082333 12.187865 -84.836205 9.337063 -0.18858 -0.224056 0.138364 -2.359656 0.980967 5.406948 -6.373455 35.72197 69.261116 8.466326 73.800056 -6.908165 0.281862 0.100663 0.037338 -91.97036 -3.593266 -1.840939 87.90667 -2.581457 6.552168 -7.041092 -1.545633 -0.749685 0.086474 -0.279615 -0.1267 -88.813889 0.046382 13.695214 82.717247 3.743584 -12.947009 -4.605832 0.499531 -0.568216 -0.26502 0.141964 0.084073 
-0.070801 0.339976 -0.261879 14.887125 7.47814 0.379425 5.064039 -0.694427 -0.990632 -2.67129 0.521485 -0.537765 -8.424497 0.337801 -1.377819 3.700899 0.911711 0.534299 -0.082264 0.208682 0.089909 -2.015212 -0.366385 -1.302577 6.22024 -25.465555 -45.20694 11.075431 -85.031181 7.326153 -0.194212 -0.237688 0.14109 -2.278408 0.995805 5.547913 -5.259285 35.96682 69.115608 8.449263 73.657394 -6.215373 0.295984 0.116417 0.041225 -95.160484 -3.464683 -1.992248 89.595352 -2.412809 6.419275 -6.888371 -1.621084 -0.754383 0.103922 -0.291835 -0.132683 -92.456932 -0.689511 13.966919 85.100822 3.852955 -13.095182 -4.705414 0.589785 -0.594148 -0.287518 0.164659 0.088527 
